<svg xmlns="http://www.w3.org/2000/svg" viewBox="0 0 2084 2084">
  <path fill="#0866ff" d="M1014.5-.5h54c247.8 9.06 465.8 93.23 654 252.5C1905.16 412.29 2020 612.46 2067 852.5a1159.24 1159.24 0 0 1 16.5 143v93c-17.29 287.98-130.96 529.81-341 725.5-163.43 146.52-354.77 234.02-574 262.5v-716c93.67.17 187.33 0 281-.5a32970.8 32970.8 0 0 0 58-315.5c.9-.71 1.24-1.71 1-3h-340c-.17-48.67 0-97.33.5-146a267.48 267.48 0 0 1 29-114c23.63-38.26 57.46-62.76 101.5-73.5a428.32 428.32 0 0 1 115-11.5c35.36.24 70.69 1.24 106 3a6.87 6.87 0 0 0 5 1c.33-96.5 0-192.83-1-289a921.82 921.82 0 0 0-130-20.5 922.47 922.47 0 0 0-216 2c-68.25 7.86-132.25 28.53-192 62-65.7 39.53-114.2 94.37-145.5 164.5a566.63 566.63 0 0 0-42 150c-5.7 40.8-8.7 81.8-9 123-.5 49.67-.67 99.33-.5 149h-214v319h214v693c-222.47-57.82-406.96-174.49-553.5-350C86.72 1518.79 7.89 1307.12-.5 1068.5v-54c11.89-285.87 119.56-528.37 323-727.5C516.8 105.75 747.46 9.91 1014.5-.5Z" style="opacity:.999"/>
  <path fill="#fefeff" d="M1524.5 411.5v288h-4a2461.75 2461.75 0 0 0-106-3 428.32 428.32 0 0 0-115 11.5c-44.04 10.74-77.87 35.24-101.5 73.5a267.48 267.48 0 0 0-29 114c-.5 48.67-.67 97.33-.5 146 113.17.33 226.17 1.33 339 3a32970.8 32970.8 0 0 1-58 315.5c-93.67.5-187.33.67-281 .5v716a1806.38 1806.38 0 0 1-81 7h-92a1112.17 1112.17 0 0 1-206-30v-693h-214v-319h214c-.17-49.67 0-99.33.5-149 .3-41.2 3.3-82.2 9-123a566.63 566.63 0 0 1 42-150c31.3-70.13 79.8-124.97 145.5-164.5 59.75-33.47 123.75-54.14 192-62a922.47 922.47 0 0 1 216-2 921.82 921.82 0 0 1 130 20.5Z" style="opacity:1"/>
  <path fill="#dbe8ff" d="M1524.5 411.5c1 96.17 1.33 192.5 1 289a6.87 6.87 0 0 1-5-1h4v-288ZM1168.5 1041.5h340c.24 1.29-.1 2.29-1 3a28526.85 28526.85 0 0 0-339-3Z" style="opacity:.878"/>
</svg>