<svg fill="none" xmlns="http://www.w3.org/2000/svg" viewBox="0 0 20 20"><path fill-rule="evenodd" clip-rule="evenodd" d="m4.37967 12.0863-.68789 2.5989-2.51421.0538C.426194 13.3286 0 11.7149 0 10c0-1.65821.398481-3.22196 1.10482-4.59888h.00054l2.23835.41532.98053 2.25171C4.11902 8.67366 4.00716 9.32366 4.00716 10c.00008.7341.13146 1.4374.37251 2.0863Z" fill="#FBBB00"/><path fill-rule="evenodd" clip-rule="evenodd" d="M19.5892 8.13184c.1135.60492.1727 1.22964.1727 1.86812 0 .71594-.0744 1.41434-.2161 2.08794-.481 2.2923-1.7378 4.2939-3.4789 5.7104l-.0006-.0005-2.8193-.1456-.399-2.5209c1.1553-.6857 2.0582-1.7588 2.5338-3.0434h-5.2837V8.13184h9.4911Z" fill="#518EF8"/><path fill-rule="evenodd" clip-rule="evenodd" d="m16.0663 17.7977.0005.0006c-1.6933 1.3774-3.8443 2.2016-6.18591 2.2016-3.76291 0-7.03448-2.1286-8.7034-5.261l3.20209-2.6527c.83444 2.2538 2.98274 3.8582 5.50131 3.8582 1.08251 0 2.09671-.2961 2.96701-.8132l3.2184 2.6665Z" fill="#28B446"/><path fill-rule="evenodd" clip-rule="evenodd" d="m16.1879 2.30219-3.201 2.65218c-.9007-.56976-1.9654-.8989-3.106-.8989-2.57558 0-4.76406 1.67801-5.5567 4.01265L1.10528 5.40109h-.00054C2.74922 2.1923 6.06205 0 9.8809 0c2.3975 0 4.5957.864297 6.307 2.30219Z" fill="#F14336"/></svg>